# AST/ASF file generated using VICON BodyLanguage
# -----------------------------------------------
:version 1.10
:name VICON
:units
  mass 1.0
  length 0.45
  angle deg
:documentation
   .ast/.asf automatically generated from VICON data using
   VICON BodyBuilder and BodyLanguage model FoxedUp or BRILLIANT.MOD
:root
   order TX TY TZ RX RY RZ
   axis XYZ
   position 0 0 0  
   orientation 0 0 0 
:bonedata
  begin
     id 1 
     name lhipjoint
     direction 0.54267 -0.795011 0.271047 
     length 2.39899 
     axis 0 0 0  XYZ
  end
  begin
     id 2 
     name lfemur
     direction 0.34202 -0.939693 0  
     length 7.49701  
     axis 0 0 20  XYZ
    dof rx ry rz
    limits (-160.0 20.0)
           (-70.0 70.0)
           (-60.0 70.0)
  end
  begin
     id 3 
     name ltibia
     direction 0.34202 -0.939693 0   
     length 8.1668   
     axis 0 0 20   XYZ
    dof rx
    limits (-10.0 170.0)
  end
  begin
     id 4 
     name lfoot
     direction 0.0736283 -0.202292 0.976554   
     length 2.13544   
     axis -90 7.62852e-016 20   XYZ
    dof rx rz
    limits (-45.0 90.0)
           (-70.0 20.0)
  end
  begin
     id 5 
     name ltoes
     direction 1.53557e-011 -4.22024e-011 1   
     length 1.07411   
     axis -90 7.62852e-016 20   XYZ
    dof rx
    limits (-90.0 20.0)
  end
  begin
     id 6 
     name rhipjoint
     direction -0.538061 -0.797813 0.272002   
     length 2.39057  
     axis 0 0 0  XYZ 
  end
  begin
     id 7 
     name rfemur
     direction -0.34202 -0.939693 0   
     length 7.50152   
     axis 0 0 -20   XYZ
    dof rx ry rz
    limits (-160.0 20.0)
           (-70.0 70.0)
           (-70.0 60.0)
  end
  begin
     id 8 
     name rtibia
     direction -0.34202 -0.939693 0   
     length 8.05793   
     axis 0 0 -20   XYZ
    dof rx
    limits (-10.0 170.0)
 end
 begin
     id 9 
     name rfoot
     direction -0.0765195 -0.210236 0.974652   
     length 2.28698  
     axis -90 -7.62852e-016 -20   XYZ
    dof rx rz
    limits (-45.0 90.0)
           (-20.0 70.0)
  end
  begin
     id 10 
     name rtoes
     direction -1.53542e-011 -4.21847e-011 1   
     length 1.14762   
     axis -90 -7.62852e-016 -20   XYZ
    dof rx
    limits (-90.0 20.0)
  end
  begin
     id 11 
     name lowerback
     direction -0.0217239 0.996592 -0.0795765   
     length 2.08176   
     axis 0 0 0   XYZ
    dof rx ry rz
    limits (-20.0 45.0)
           (-30.0 30.0)
           (-30.0 30.0)
  end
  begin
     id 12 
     name upperback
     direction -0.00563773 0.999651 -0.0258155   
     length 2.08898   
     axis 0 0 0   XYZ
    dof rx ry rz
    limits (-20.0 45.0)
           (-30.0 30.0)
           (-30.0 30.0)
  end
  begin
     id 13 
     name thorax
     direction 0.0032706 0.999923 0.0119599   
     length 2.0968   
     axis 0 0 0   XYZ
    dof rx ry rz
    limits (-20.0 45.0)
           (-30.0 30.0)
           (-30.0 30.0)
  end
  begin
     id 14 
     name lowerneck
     direction -0.0285886 0.99568 0.0883427   
     length 1.81272   
     axis 0 0 0   XYZ
    dof rx ry rz
    limits (-20.0 45.0)
           (-30.0 30.0)
           (-30.0 30.0)
  end
  begin
     id 15 
     name upperneck
     direction 0.0807535 0.97985 -0.18268   
     length 1.82518   
     axis 0 0 0   XYZ
    dof rx ry rz
    limits (-20.0 45.0)
           (-30.0 30.0)
           (-30.0 30.0)
  end
  begin
     id 16
     name head
     direction 0.0236605 0.997053 -0.0729767  
     length 1.84443  
     axis 0 0 0   XYZ
    dof rx ry rz
    limits (-20.0 45.0)
           (-30.0 30.0)
           (-30.0 30.0)
  end
  begin
     id 17 
     name lclavicle
     direction 0.918986 0.39378 -0.0200683  
     length 3.27822  
     axis 0 0 0   XYZ
    dof ry rz
    limits (-20.0 10.0)
           (0.0 20.0)
  end
  begin
     id 18 
     name lhumerus
     direction 1 -4.4897e-011 2.09544e-027   
     length 5.5568   
     axis 180 -30 -90   XYZ
    dof rx ry rz
    limits (-60.0 90.0)
           (-90.0 90.0)
           (-90.0 90.0)
  end
  begin
     id 19
     name lradius
     direction 1 -4.48957e-011 -1.27696e-026   
     length 3.63979   
     axis 180 -30 -90   XYZ
    dof rx
    limits (-10.0 170.0)
  end
  begin
     id 20
     name lwrist
     direction 1 -4.49001e-011 -1.49001e-026   
     length 1.8199   
     axis 9.0955e-015 90 90   XYZ
    dof ry
    limits (-180.0 0.0)
 end
  begin
     id 21 
     name lhand
     direction 1 -4.48709e-011 -2.9758e-026   
     length 0.569419   
     axis 1.90115e-014 90 90   XYZ
    dof rx rz
    limits (-90.0 90.0)
           (-45.0 45.0)
  end
  begin
     id 22 
     name lfingers
     direction 1 -4.49175e-011 -5.96505e-026   
     length 0.45908   
     axis 3.80223e-014 90 90   XYZ
    dof rx
    limits (0.0 90.0)
  end
  begin
     id 23
     name lthumb
     direction 0.707107 -6.34864e-011 0.707107   
     length 0.65915   
     axis -90 45 -3.84942e-014   XYZ
    dof rx rz
    limits (-45.0 45.0)
           (-45.0 45.0)
  end
  begin
     id 24 
     name rclavicle
     direction -0.911913 0.396426 -0.106115   
     length 3.46301  
     axis 0 0 0   XYZ 
    dof ry rz
    limits (-10.0 20.0)
           (-20.0 0.0)
  end
  begin
     id 25 
     name rhumerus
     direction -1 -4.48965e-011 7.78516e-028  
     length 5.34339   
     axis 180 30 90   XYZ
    dof rx ry rz
    limits (-90.0 60.0)
           (-90.0 90.0)
           (-90.0 90.0)
  end
  begin
     id 26 
     name rradius
     direction -1 -4.48948e-011 -5.79823e-027   
     length 3.65101   
     axis 180 30 90   XYZ
    dof rx
    limits (-10.0 170.0)
  end
  begin
     id 27 
     name rwrist
     direction -1 -4.48995e-011 -1.48996e-026   
     length 1.8255   
     axis 9.0955e-015 -90 -90   XYZ
    dof ry
    limits (-180.0 0.0)
  end
  begin
     id 28
     name rhand
     direction -1 -4.48957e-011 -2.97937e-026   
     length 0.694249   
     axis 1.90115e-014 -90 -90   XYZ
    dof rx rz
    limits (-90.0 90.0)
           (-45.0 45.0)
  end
  begin
     id 29
     name rfingers
     direction -1 -4.4898e-011 -5.95943e-026   
     length 0.559721   
     axis 3.80223e-014 -90 -90   XYZ
    dof rx
    limits (0.0 90.0)
  end
  begin
     id 30
     name rthumb
     direction -0.707107 -6.34969e-011 0.707107   
     length 0.803651   
     axis -90 -45 3.84942e-014   XYZ
    dof rx rz
    limits (-45.0 45.0)
           (-45.0 45.0)
  end
:hierarchy
  begin
    root lhipjoint rhipjoint lowerback
    lhipjoint lfemur
    lfemur ltibia
    ltibia lfoot
    lfoot ltoes
    rhipjoint rfemur
    rfemur rtibia
    rtibia rfoot
    rfoot rtoes
    lowerback upperback
    upperback thorax
    thorax lowerneck lclavicle rclavicle
    lowerneck upperneck
    upperneck head
    lclavicle lhumerus
    lhumerus lradius
    lradius lwrist
    lwrist lhand lthumb
    lhand lfingers
    rclavicle rhumerus
    rhumerus rradius
    rradius rwrist
    rwrist rhand rthumb
    rhand rfingers
  end

#!OML:ASF H:\Terrain\Walking\May29\JustinRory\rory.ASF
:FULLY-SPECIFIED
:DEGREES
339
root 17.3497 17.8582 -10.6298 -4.71787 -34.224 5.02249
lowerback 5.36423 2.17364 -1.07425
upperback 4.84476 2.80552 0.75507
thorax 1.89296 1.34512 1.27354
lowerneck -2.07945 -0.0863159 -1.7612
upperneck 0.105025 -0.0659116 -1.24612
head 0.369196 -0.0432606 -0.0907408
rclavicle -9.38264e-014 1.90833e-014
rhumerus -82.3089 -26.8092 -3.71382
rradius 59.0103
rwrist -29.0402
rhand -29.8502 25.9345
rfingers 7.12502
rthumb -3.17278 -4.02161
lclavicle -9.38264e-014 1.90833e-014
lhumerus -75.8489 20.5912 16.9991
lradius 68.2001
lwrist 36.8928
lhand -26.7446 24.2054
lfingers 7.12502
lthumb -0.17341 54.1851
rfemur 3.22464 0.874869 20.8002
rtibia 24.3635
rfoot -22.7287 -24.4506
rtoes -2.9844
lfemur -32.3821 -3.02303 -14.9678
ltibia 35.5782
lfoot 0.870197 0.439626
ltoes -6.33965
340
root 17.3534 17.8656 -10.6396 -4.47542 -34.723 4.73931
lowerback 5.82849 2.35296 -0.544662
upperback 4.76623 3.05933 0.749957
thorax 1.57385 1.488 0.940674
lowerneck -2.44752 -0.129253 -1.41178
upperneck 0.337402 -0.118983 -1.40657
head 0.501043 -0.0742774 -0.196949
rclavicle 1.00585e-013 -1.35174e-014
rhumerus -83.2714 -26.8819 -5.81978
rradius 59.8803
rwrist -28.7197
rhand -29.3121 25.8066
rfingers 7.12502
rthumb -2.65312 -4.15669
lclavicle 1.00585e-013 -1.35174e-014
lhumerus -76.3178 20.1394 19.972
lradius 69.1273
lwrist 36.9687
lhand -25.4041 22.4271
lfingers 7.12502
lthumb 1.12127 52.4039
rfemur 3.02689 1.12475 21.0788
rtibia 24.3972
rfoot -22.4851 -24.5972
rtoes -4.46007
lfemur -32.2087 -3.06301 -14.4577
ltibia 35.5013
lfoot 0.780336 0.842368
ltoes -5.12665
341
root 17.351 17.8734 -10.6462 -4.63074 -35.0476 5.039
lowerback 6.2177 2.32702 -0.772967
upperback 4.7102 3.01169 0.764821
thorax 1.2889 1.45956 1.06691
lowerneck -2.50225 0.0659983 -1.15861
upperneck 0.383995 0.138933 -1.72711
head 0.525531 0.0517469 -0.332638
rclavicle -7.95139e-014 -1.11319e-014
rhumerus -83.4258 -26.8633 -8.62155
rradius 61.0456
rwrist -28.3093
rhand -29.0854 25.607
rfingers 7.12502
rthumb -2.43417 -4.35888
lclavicle -7.95139e-014 -1.11319e-014
lhumerus -77.1538 20.0591 22.7211
lradius 69.9718
lwrist 37.3643
lhand -25.7438 23.3883
lfingers 7.12502
lthumb 0.79316 53.3666
rfemur 3.01174 1.20589 20.7942
rtibia 24.3074
rfoot -22.4362 -24.3349
rtoes -4.5314
lfemur -32.0022 -2.85711 -14.5962
ltibia 35.528
lfoot 1.10724 0.583842
ltoes -4.25645
342
root 17.3465 17.8789 -10.6526 -4.75698 -35.3549 5.28982
lowerback 6.24131 2.26658 -1.03822
upperback 4.85048 2.91587 0.85276
thorax 1.40597 1.40136 1.31279
lowerneck -2.4518 0.355592 -0.981969
upperneck 0.238129 0.519434 -2.10173
head 0.476142 0.240938 -0.47105
rclavicle -3.89618e-014 1.66979e-014
rhumerus -82.9664 -26.8858 -11.8299
rradius 62.2532
rwrist -27.986
rhand -28.97 25.2426
rfingers 7.12502
rthumb -2.3227 -4.72445
lclavicle -3.89618e-014 1.66979e-014
lhumerus -77.728 20.4932 25.5013
lradius 70.5666
lwrist 37.3871
lhand -25.723 25.4202
lfingers 7.12502
lthumb 0.8133 55.3984
rfemur 2.99937 1.30148 20.5648
rtibia 24.1846
rfoot -22.3489 -24.1074
rtoes -4.30667
lfemur -31.7695 -2.96228 -14.6271
ltibia 35.5373
lfoot 1.03889 0.241872
ltoes -5.74793
343
root 17.3371 17.8898 -10.6436 -4.78316 -35.8361 5.21691
lowerback 6.03828 2.27782 -0.879746
upperback 5.11714 2.93417 0.938094
thorax 1.79745 1.40755 1.32674
lowerneck -2.499 0.602296 -0.90686
upperneck 0.20343 0.847665 -2.24847
head 0.476809 0.404073 -0.524385
rclavicle -5.18828e-014 6.36111e-015
rhumerus -82.4449 -26.824 -15.2287
rradius 63.5684
rwrist -27.807
rhand -28.6189 25.0287
rfingers 7.12502
rthumb -1.98365 -4.94178
lclavicle -5.18828e-014 6.36111e-015
lhumerus -77.9514 20.7833 28.5585
lradius 71.3119
lwrist 37.0181
lhand -25.0864 25.6433
lfingers 7.12502
lthumb 1.42816 55.6182
rfemur 3.1475 1.50508 20.5971
rtibia 24.0085
rfoot -21.704 -24.2498
rtoes -6.15496
lfemur -31.4256 -3.41661 -14.3056
ltibia 35.6367
lfoot 0.344035 0.679483
ltoes -5.96321
344
root 17.3292 17.9012 -10.6205 -4.81142 -36.461 5.12655
lowerback 5.97168 2.22462 -0.653986
upperback 5.21117 2.86825 1.10142
thorax 1.93635 1.37573 1.37682
lowerneck -2.42105 0.935974 -1.19011
upperneck 0.355481 1.30316 -2.261
head 0.511605 0.629899 -0.47657
rclavicle -2.14687e-014 9.54166e-015
rhumerus -81.5781 -26.5029 -18.6117
rradius 64.9087
rwrist -27.6313
rhand -27.9758 25.5309
rfingers 7.12502
rthumb -1.36251 -4.44447
lclavicle -2.14687e-014 9.54166e-015
lhumerus -78.4303 21.1049 31.6357
lradius 72.1234
lwrist 36.2448
lhand -23.9556 25.1709
lfingers 7.12502
lthumb 2.52023 55.1358
rfemur 3.40449 1.73477 20.5792
rtibia 23.6824
rfoot -20.9666 -24.2561
rtoes -8.29331
lfemur -31.0945 -3.73194 -14.0322
ltibia 35.7874
lfoot -0.434144 1.34865
ltoes -5.35369
